<?xml version="1.0" encoding="utf-8"?>
<!-- Generator: Adobe Illustrator 21.0.0, SVG Export Plug-In . SVG Version: 6.00 Build 0)  -->
<svg version="1.1" id="Layer_1" xmlns="http://www.w3.org/2000/svg" xmlns:xlink="http://www.w3.org/1999/xlink" x="0px" y="0px"
	 viewBox="0 0 462 47.6" style="enable-background:new 0 0 462 47.6;" xml:space="preserve">
<style type="text/css">
	.st0{clip-path:url(#SVGID_2_);fill:#231F20;}
</style>
<g>
	<defs>
		<rect id="SVGID_1_" y="0" width="462" height="47.6"/>
	</defs>
	<clipPath id="SVGID_2_">
		<use xlink:href="#SVGID_1_"  style="overflow:visible;"/>
	</clipPath>
	<path class="st0" d="M33.7,2.1c-2.5,0-5,0-7.2,0.1l-0.8,0H13.4l-0.9,0C9.8,2.1,6.9,2.1,4,2.1c-3,0-3.4,3-3.8,5.5
		C0.1,8,0.1,8.4,0,8.7C0,8.8,0,8.9,0.1,9c0.1,0.1,0.1,0.1,0.2,0.2l1.3,0.2C1.8,9.4,2,9.3,2,9.1c0.6-1.8,2.6-4.2,13.3-4.2h0
		c0,0,0,0,0,0l0.8,0v33.8c0,3.4-1,4.6-4.3,4.7c-0.2,0-0.3,0.2-0.3,0.4v1.4c0,0.1,0,0.2,0.1,0.3c0.1,0.1,0.2,0.1,0.3,0.1
		c1,0,5.2-0.1,7.2-0.1c1.4,0,6.2,0,7.1,0.1c0,0,0,0,0,0c0,0,0.1,0,0.1,0c0,0,0.1,0,0.2-0.1c0.1-0.1,0.1-0.2,0.1-0.3v-1.4
		c0-0.2-0.2-0.4-0.3-0.4c-3.4-0.2-4.3-1.1-4.3-4.7V4.9h0.2c3.5,0,13,0,14,4.2c0,0.2,0.2,0.3,0.4,0.3c0,0,0.1,0,0.1,0l1.2-0.2
		c0.2,0,0.3-0.2,0.3-0.4c-0.1-0.5-0.2-1-0.3-1.5C37.6,4.5,37.2,2.1,33.7,2.1"/>
	<path class="st0" d="M84.1,43.5c-2.8-0.2-4.3-0.8-4.3-3.8V8.5c0-2.8,1.3-4.1,4.2-4.3c0.2,0,0.4-0.2,0.4-0.4V2.5
		c0-0.1-0.1-0.2-0.1-0.3C84.3,2,84.1,2,84,2c-0.7,0-1.3,0-2,0.1l-0.1,0l-0.1,0c-1.4,0.1-2.9,0.1-4.3,0.1c-2.6,0-5.3,0-7.9-0.2
		c-0.1,0-0.2,0-0.3,0.1c-0.1,0.1-0.1,0.2-0.1,0.3v1.3c0,0.2,0.2,0.4,0.4,0.4c3.1,0.2,4.2,1.3,4.2,4.3v12.1H51.1V8.6
		c0-3.1,1.2-4.3,4.2-4.4c0.2,0,0.4-0.2,0.4-0.4V2.5c0-0.1-0.1-0.2-0.1-0.3C55.6,2.1,55.5,2,55.3,2c-0.6,0-1.3,0-1.9,0.1l-0.1,0
		l-0.1,0c-1.4,0.1-2.8,0.1-4.2,0.1c-1.8,0-3.5,0-5.2-0.1l-0.1,0l-0.1,0c-0.9,0-1.7,0-2.6-0.1c-0.1,0-0.2,0-0.3,0.1
		c-0.1,0.1-0.1,0.2-0.1,0.3v1.3c0,0.2,0.2,0.4,0.4,0.4c2.7,0.2,4.2,0.9,4.2,4.2v31.2c0,2.3-0.6,3.4-4.3,3.9c-0.2,0-0.4,0.2-0.4,0.4
		v1.4c0,0.1,0.1,0.2,0.2,0.3c0.1,0.1,0.2,0.1,0.3,0.1l0.9,0c1.5,0,2.9-0.1,4.3-0.1c0.6,0,1.1,0,1.7,0c3,0,4.1,0,4.1,0l1.3,0
		c0.7,0,1.3,0,2,0.1c0,0,0.1,0,0.1,0c0,0,0.1,0,0.2-0.1c0.1-0.1,0.1-0.2,0.1-0.3v-1.4c0-0.2-0.2-0.4-0.4-0.4c-2.8-0.3-4.2-1-4.2-4
		V23.8h22.8v15.7c0,3.3-1.6,3.7-4.3,4c-0.2,0-0.4,0.2-0.4,0.4v1.4c0,0.1,0.1,0.2,0.2,0.3c0.1,0.1,0.2,0.1,0.3,0.1c0,0,0,0,0,0l1.3,0
		c1.2,0,2.3,0,3.3,0c1,0,1.9,0,2.8,0c1.6,0,5.9,0.1,7,0.1c0,0,0.1,0,0.1,0c0,0,0,0,0,0c0,0,0.1,0,0.2-0.1c0.1-0.1,0.1-0.2,0.1-0.3
		v-1.4C84.5,43.7,84.4,43.5,84.1,43.5"/>
	<path class="st0" d="M122.1,38.6l-1.2-0.4c-0.2-0.1-0.4,0-0.5,0.2c-2.4,4.2-10.9,4.2-14.6,4.2c-4,0-5.8-0.4-5.8-3.9V24.2h12
		c2.7,0,4.4,1.4,4.4,3.8c0,0.2,0.2,0.4,0.4,0.4h1.3c0.1,0,0.2,0,0.3-0.1c0.1-0.1,0.1-0.2,0.1-0.3c0-0.5,0-0.9-0.1-1.4l0-0.5
		c0-1.1-0.1-2.3-0.1-3.5c0-1,0-1.9,0.1-2.8c0-0.5,0.1-1,0.1-1.5c0-0.1,0-0.2-0.1-0.3c-0.1-0.1-0.2-0.1-0.3-0.1h-1.3
		c-0.2,0-0.4,0.2-0.4,0.4c-0.2,2.3-1.9,2.8-4.4,2.8h-12V5c3.7,0,8.3,0.3,11.7,0.6c3.2,0.3,5.6,1,7.1,3.7c0.1,0.1,0.2,0.2,0.4,0.2
		c0,0,0.1,0,0.1,0l1.2-0.2c0.1,0,0.2-0.1,0.3-0.2c0.1-0.1,0.1-0.2,0.1-0.3c-0.1-0.7-0.2-1.3-0.3-1.8l0-0.1c-0.5-2.9-0.8-4.8-4.7-4.8
		c-1.4,0-3.3,0.1-4.9,0.1H97.2l-0.3,0C95.1,2.1,92.5,2,89.8,2c-0.2,0-0.4,0.2-0.4,0.4v1.3c0,0.2,0.2,0.4,0.4,0.4
		C92.9,4.5,94,5.1,94,8.6v29.8c0,3.3-0.6,4.8-4.2,5.1c-0.2,0-0.4,0.2-0.4,0.4v1.4c0,0.2,0.2,0.4,0.4,0.4c2.4,0,5.3-0.1,7.6-0.1
		c0,0,7.6,0,8.4,0l6.7,0l0.1,0c2,0.1,4.1,0.1,6.3,0.1c2.4,0,2.9-3,3.3-5.3c0.1-0.5,0.2-1,0.3-1.3c0-0.1,0-0.2,0-0.3
		C122.3,38.7,122.2,38.6,122.1,38.6"/>
	<path class="st0" d="M164.2,28.4c0.1-0.1,0.1-0.2,0.1-0.4c0-0.5,0-1-0.1-1.5l0-0.5c0-1.1-0.1-2.3-0.1-3.5c0-1.5,0-2.8,0.2-4.3
		c0-0.1,0-0.3-0.1-0.4c-0.1-0.1-0.2-0.2-0.4-0.2h-1.4c-0.3,0-0.5,0.2-0.5,0.5c-0.1,2.3-1.9,2.8-4.4,2.8h-11.9V5
		c4,0,8.4,0.2,11.3,0.6c2.8,0.3,5.8,0.8,7.3,3.6c0.1,0.2,0.3,0.3,0.4,0.3c0,0,0.1,0,0.1,0l1.1-0.2c0.1,0,0.2-0.1,0.3-0.2
		c0.1-0.1,0.1-0.2,0.1-0.4c-0.1-0.4-0.1-0.9-0.2-1.3l0-0.1C165.9,5,165.5,2,162.1,2c-1.5,0-3.1,0.1-4.5,0.1l0,0L135.5,2
		c0,0-0.2,0-0.3,0.1c-0.1,0.1-0.1,0.2-0.1,0.3v1.3c0,0.3,0.2,0.5,0.5,0.5c3.2,0.3,4.1,1.3,4.1,4.7v29.7c0,3.5-1,4.6-4.2,4.7
		c-0.3,0-0.5,0.2-0.5,0.5v1.4c0,0.3,0.2,0.5,0.5,0.5c1.3,0,2.6,0,3.9-0.1c1.3,0,2.7,0,4,0h0.9c1.3,0,2.6,0,3.9,0l0.5,0
		c0.7,0,1.4,0,2.2,0.1c0,0,0.1,0,0.1,0c0,0,0.1,0,0.2-0.1c0.1-0.1,0.1-0.2,0.1-0.3v-1.4c0-0.3-0.2-0.5-0.5-0.5
		c-3.8-0.3-5.2-0.8-5.2-4.9V24.2h12c2.9,0,4.3,1.3,4.3,3.9c0,0.3,0.2,0.5,0.5,0.5h1.4C164,28.6,164.2,28.5,164.2,28.4"/>
	<path class="st0" d="M208,43.3c-2.6-0.2-4.1-1.2-5.3-4L186.9,4c-0.5-1-1.2-2.1-2.7-2.1c-0.7,0-1.4,0-2.1,0.1l-0.1,0
		c-0.6,0-1.3,0.1-2,0.1c-0.5,0-1-0.1-1.5-0.1c-0.1,0-0.1,0-0.1,0c-0.1,0-0.3,0.1-0.4,0.1c-0.1,0.1-0.2,0.3-0.2,0.4v1.3
		c0,0.3,0.3,0.6,0.6,0.6c1.2,0,2.7,1.8,4.2,5.1l-12.1,27c-0.1,0.2-0.2,0.4-0.3,0.6l-0.1,0.1c-1.4,3.1-2.7,6-6.3,6.1
		c-0.3,0-0.6,0.3-0.6,0.6v1.4c0,0.2,0.1,0.3,0.2,0.4c0.1,0.1,0.2,0.2,0.4,0.2h0c0.6,0,1.2,0,1.9,0c0.9,0,1.6,0,2.2,0
		c0.7,0,1.2,0,1.9,0l2.4,0c1,0,2.2,0,3.5,0.1c0,0,0,0,0.1,0l0,0c0,0,0,0,0,0c0.1,0,0.3-0.1,0.4-0.2c0.1-0.1,0.2-0.3,0.2-0.4v-1.4
		c0-0.3-0.3-0.6-0.6-0.6c-2.8,0-3.1-1.5-3.1-2.1c0-0.8,0.5-2.1,0.9-3.1l2.9-6.7h15.8l3.3,7.5c0.3,0.7,0.6,1.6,0.6,2.4
		c0,1.4-0.8,2-3,2c-0.3,0-0.6,0.3-0.6,0.6v1.4c0,0.2,0.1,0.3,0.2,0.4c0.1,0.1,0.2,0.1,0.3,0.1c0,0,0,0,0.1,0c1,0,5-0.1,7-0.1
		c0.5,0,1,0,1.4,0l0.1,0c0.5,0,0.9,0,1.3,0c0.7,0,1.2,0,1.9,0c0.5,0,1.1,0,1.7,0c0.5,0,0.9,0,1.4,0c0.2,0,0.3-0.1,0.4-0.2
		c0.1-0.1,0.2-0.3,0.2-0.4v-1.4C208.5,43.6,208.3,43.3,208,43.3 M190.9,28.2H178l6.4-14.7L190.9,28.2z M193.3,45.7L193.3,45.7z"/>
	<path class="st0" d="M248.1,36.6l-1.5-0.2c0,0-0.1,0-0.1,0c-0.2,0-0.4,0.1-0.5,0.3c-1.1,2.3-4.8,7.6-14.6,7.6
		c-5.8,0-10.7-2.2-14.3-6.5c-3.3-4-5.1-9.5-5.1-15.6c0-5.2,1.6-10,4.5-13.4c3.1-3.7,7.5-5.6,12.7-5.6c3.4,0,6.7,0.7,9.3,1.9
		c3.2,1.5,5.4,3.7,6.5,6.5c0.1,0.2,0.3,0.4,0.5,0.4h1.5c0.2,0,0.3-0.1,0.4-0.2c0.1-0.1,0.2-0.3,0.1-0.4l-1.1-9.2
		c0-0.3-0.3-0.5-0.6-0.5h-1.3c-0.2,0-0.3,0.1-0.5,0.2c0,0.1-0.1,0.1-0.1,0.2l0,0.1c-0.2,0.3-0.3,0.4-0.4,0.4c-0.1,0-0.3,0-0.4-0.1
		c-4.2-1.7-8.4-2.5-13.2-2.5c-14,0-24.6,10.5-24.6,24.4c0,14.5,12.9,23.1,25.4,23.1c4,0,15.7-1.2,16.9-6.4c0.3-0.9,0.4-1.8,0.6-2.7
		l0-0.1c0.1-0.4,0.1-0.8,0.2-1.1c0-0.2,0-0.3-0.1-0.4C248.4,36.7,248.3,36.6,248.1,36.6"/>
	<path class="st0" d="M286,38.7c-0.1-0.1-0.2-0.2-0.3-0.3l-1.2-0.4c-0.2-0.1-0.5,0.1-0.6,0.3c-2.3,4.1-10.9,4.1-14.5,4.1
		c-4,0-5.7-0.3-5.7-3.7V24.3h11.9c2.1,0,4.3,1,4.3,3.7c0,0.3,0.3,0.6,0.6,0.6h1.4c0.2,0,0.3-0.1,0.4-0.2c0.1-0.1,0.2-0.2,0.2-0.4
		c0-0.6,0-1.3-0.1-1.9l0-0.1c0-1.1-0.1-2.2-0.1-3.5c0-0.9,0.1-1.9,0.1-2.7l0-0.1c0-0.5,0.1-1,0.1-1.5c0-0.2,0-0.3-0.2-0.4
		c-0.1-0.1-0.3-0.2-0.4-0.2h-1.4c-0.3,0-0.5,0.2-0.6,0.5c-0.1,2.2-1.8,2.7-4.3,2.7h-11.9V5.1c3.7,0,8.2,0.3,11.5,0.6
		c3.1,0.3,5.5,1,7,3.6c0.1,0.2,0.3,0.3,0.5,0.3c0,0,0.1,0,0.1,0l1.2-0.2c0.1,0,0.3-0.1,0.4-0.2c0.1-0.1,0.1-0.3,0.1-0.4
		c-0.1-0.7-0.2-1.3-0.3-1.9c-0.5-2.9-0.8-4.9-4.9-4.9c-1.4,0-3.4,0.1-4.9,0.1h-13.5c-2.3-0.1-4.6-0.1-7.4-0.1
		c-0.3,0-0.6,0.3-0.6,0.6v1.3c0,0.3,0.2,0.5,0.5,0.6c3.1,0.3,4.1,0.9,4.1,4.3v29.8c0,3.3-0.6,4.7-4.1,5c-0.3,0-0.5,0.3-0.5,0.6v1.4
		c0,0.3,0.3,0.6,0.6,0.6c2.4,0,4.5,0,7.4-0.1c0,0,4.3,0,5.9,0l0.5,0c0.2,0,0.6,0,1.1,0c1.9,0,7.9,0,7.9,0c2,0.1,4,0.1,6.3,0.1
		c2.5,0,3-3.1,3.4-5.4c0.1-0.5,0.2-1,0.3-1.3C286.1,39,286.1,38.9,286,38.7"/>
	<path class="st0" d="M315.7,19.6c-5.6-2.4-10.8-4.7-10.8-9.6c0-4.6,4.5-6.2,8.7-6.2c4.2,0,10.2,3,11.6,7.6c0.1,0.2,0.2,0.3,0.4,0.3
		l1.5-0.1c0.1,0,0.2-0.1,0.3-0.1c0.1-0.1,0.1-0.2,0.1-0.4l-1.1-8.6c0-0.2-0.2-0.4-0.4-0.4h-1.6c-0.2,0-0.4,0.1-0.4,0.3
		c-0.2,0.6-0.3,0.7-0.6,0.7c-0.3,0-0.7-0.1-1.2-0.4c-2.9-1.2-5.5-1.7-8.3-1.7c-7,0-14,3.6-14,11.6c0,7.3,6.1,9.8,12.1,12.3
		c5.6,2.3,11.5,4.5,11.5,10.5c0,4-2.7,8.4-10.2,8.4c-5.9,0-11.4-4-12.7-9.4c0-0.2-0.2-0.3-0.5-0.3h0l-1.6,0.1
		c-0.1,0-0.2,0.1-0.3,0.2c-0.1,0.1-0.1,0.2-0.1,0.3l1.3,10.8c0,0.2,0.2,0.4,0.4,0.4h1.6c0.2,0,0.4-0.1,0.4-0.3
		c0.1-0.4,0.3-0.6,0.6-0.6c0.4,0,0.9,0.2,1.4,0.3c0.2,0.1,0.5,0.1,0.7,0.2c2.9,0.8,5.7,1.2,8.5,1.2c8.1,0,16.5-5.2,16.5-13.9
		C329.4,25.4,322.2,22.4,315.7,19.6"/>
	<path class="st0" d="M375.5,43.5c-2.8-0.2-4.3-0.8-4.3-3.8V8.5c0-2.8,1.3-4.1,4.2-4.3c0.2,0,0.4-0.2,0.4-0.4V2.5
		c0-0.1,0-0.2-0.1-0.3c-0.1-0.1-0.2-0.1-0.3-0.1h0c-0.6,0-1.1,0-1.7,0.1l-0.4,0c-1.4,0.1-2.9,0.1-4.3,0.1c-2.6,0-5.3,0-7.9-0.2
		c-0.1,0-0.2,0-0.3,0.1c-0.1,0.1-0.1,0.2-0.1,0.3v1.3c0,0.2,0.2,0.4,0.4,0.4c3.1,0.2,4.2,1.3,4.2,4.3v12.1h-22.8V8.6
		c0-3.1,1.2-4.3,4.2-4.4c0.2,0,0.4-0.2,0.4-0.4V2.5c0-0.1-0.1-0.2-0.1-0.3C347,2.1,346.9,2,346.7,2c-0.6,0-1.2,0-1.8,0.1l-0.3,0
		c-1.4,0.1-2.8,0.1-4.2,0.1c-1.8,0-3.5,0-5.2-0.1l-0.1,0l-0.1,0c-0.9,0-1.8,0-2.6-0.1c0,0,0,0-0.1,0c-0.1,0-0.2,0-0.3,0.1
		C332,2.2,332,2.3,332,2.5v1.3c0,0.2,0.2,0.4,0.4,0.4c2.7,0.2,4.2,0.9,4.2,4.2v31.2c0,2.3-0.6,3.4-4.3,3.9c-0.2,0-0.4,0.2-0.4,0.4
		v1.4c0,0.1,0.1,0.2,0.2,0.3c0.1,0.1,0.2,0.1,0.3,0.1v0c0.2,0,0.5,0,0.7,0c0.4,0,0.9,0,1.3,0l0.5,0c1.6,0,3.1-0.1,4.6-0.1
		c1.5,0,6,0.1,7.2,0.2c0,0,0,0,0,0c0.1,0,0.2,0,0.3-0.1c0.1-0.1,0.1-0.2,0.1-0.3v-1.4c0-0.2-0.2-0.4-0.4-0.4c-2.8-0.3-4.2-1-4.2-4
		V23.8h22.8v15.7c0,3.3-1.6,3.7-4.2,4c-0.2,0-0.4,0.2-0.4,0.4v1.4c0,0.1,0.1,0.3,0.1,0.3c0.1,0.1,0.2,0.1,0.3,0.1v0
		c3.1-0.1,5-0.1,7.1-0.1c1.4,0,6,0.1,7.3,0.1c0.1,0,0.2,0,0.3-0.1c0.1-0.1,0.1-0.2,0.1-0.3v-1.4C375.9,43.7,375.7,43.5,375.5,43.5"
		/>
	<path class="st0" d="M418.4,6.8c-4.5-4.2-10.6-6.7-16.8-6.7c-6.2,0-12.3,2.4-16.8,6.7c-4.7,4.4-7.3,10.5-7.3,17
		c0,13,10.8,23.7,24.1,23.7c6.2,0,12.3-2.5,16.8-6.7c4.7-4.5,7.3-10.5,7.3-16.9C425.7,17.3,423.1,11.3,418.4,6.8 M419.2,25.4
		c0,5.6-1.6,10.3-4.7,13.7c-3.1,3.4-7.6,5.2-13,5.2c-5.5,0-10.1-2.4-13.3-6.9c-2.8-4-4.4-9.5-4.4-15.4c0-11.5,7-18.9,17.8-18.9
		c5.5,0,10.1,2.4,13.2,6.9C417.7,14,419.2,19.5,419.2,25.4"/>
	<path class="st0" d="M457.7,4.4c-2.6-2-6.3-3.1-11-3.1c-2.1,0-4.2,0.2-6.2,0.4c-1.9,0.2-3.2,0.3-6.1,0.4c-0.5,0-1,0-1.6,0
		c-1.5,0-2.9-0.1-4.4-0.2l-1-0.1c-0.1,0-0.2,0-0.3,0.1c-0.1,0.1-0.1,0.2-0.1,0.3v1.3c0,0.2,0.2,0.4,0.4,0.4c2.8,0.3,4.2,1,4.2,4.2
		v30.5c0,3.4-1.2,4.6-4.3,4.6c-0.2,0-0.4,0.2-0.4,0.4v1.4c0,0.1,0.1,0.2,0.1,0.3c0.1,0.1,0.2,0.1,0.3,0.1h0c1.4-0.1,3.6-0.1,5.1-0.1
		c1.3,0,2.3,0,2.3,0l2.9,0c1.9,0,3.4,0,5.2,0.1h0c0.1,0,0.2,0,0.3-0.1c0.1-0.1,0.1-0.2,0.1-0.3v-1.4c0-0.2-0.2-0.4-0.4-0.4
		c-3.5-0.2-5.3-0.9-5.3-4.8V4.8c1.8-0.3,3.3-0.4,4.9-0.4c4.1,0,7.5,1,9.8,2.9c2.5,2.1,3.8,5.2,3.8,9.2c0,2.6-0.9,4.9-2.7,6.6
		c-1.7,1.7-4,2.6-6.5,2.6c-2.1,0-4.9-0.5-6.2-1.8c-0.1-0.1-0.3-0.2-0.5-0.1c-0.2,0.1-0.3,0.3-0.2,0.5l0.3,2.3c0,0.2,0.1,0.3,0.3,0.4
		c2.2,1,4.4,1.5,6.7,1.5c8.3,0,14.9-6,14.9-13.7C462,10.2,460.6,6.6,457.7,4.4"/>
</g>
</svg>
